<svg width="784" height="635" viewBox="0 0 784 635" fill="none" xmlns="http://www.w3.org/2000/svg">
<path opacity="0.3" d="M725.435 174.341L723.514 173.21L723.285 173.076L685.436 150.824L723.285 173.076L779.701 139.909L723.285 106.742L666.869 139.907L664.721 138.642L723.285 104.215L723.821 104.531L784 139.909L725.435 174.341ZM721.137 174.341L702.57 163.424L721.137 174.341Z" fill="#D1EBFA"/>
<path opacity="0.3" d="M608.357 174.341L636.565 157.756L608.359 174.341H608.357ZM604.058 174.341L572.343 155.693L604.06 174.341H604.058ZM606.208 173.076L578 156.492L606.208 173.076L640.419 152.962L606.208 173.076ZM662.622 139.909L606.208 106.742L561.384 133.095V130.568L606.208 104.215L664.773 138.644L662.622 139.909Z" fill="#D1EBFA"/>
<path opacity="0.3" d="M666.872 208.502L705.835 185.596L666.876 208.502H666.872ZM664.725 207.237L608.308 174.07L606.316 172.898L606.159 172.806L640.37 152.692L662.573 139.639L664.723 138.374L666.872 139.639L685.438 150.555L723.288 172.807L721.139 174.072L702.573 163.156L664.723 140.903L636.516 157.486L608.308 174.07L664.725 207.237L685.01 195.313L664.725 207.237ZM725.438 174.072L723.825 173.124L723.517 172.942L725.438 174.072Z" fill="#D1EBFA"/>
<path opacity="0.3" d="M725.437 243.236L723.287 241.974L666.867 208.807L664.96 207.684L664.721 207.542L685.005 195.617L721.135 174.377L723.283 173.112L723.512 173.247L723.821 173.428L725.434 174.377L784 208.809L725.437 243.236ZM666.867 208.807L723.287 241.974L779.701 208.809L723.283 175.64L705.831 185.9L666.867 208.807Z" fill="#D1EBFA"/>
<path d="M508.014 117.636H508.012L510.162 116.373L508.014 117.636Z" fill="#D1EBFA"/>
<path opacity="0.3" d="M561.384 201.713L578 191.944L561.384 201.713ZM561.384 199.185L569.848 194.211L561.384 199.185ZM608.357 174.097L606.744 173.149L606.366 172.925L608.357 174.097ZM604.06 174.097L572.343 155.45L561.384 149.007V146.479L578 156.248L606.208 172.832L604.058 174.097" fill="#D1EBFA"/>
<path opacity="0.3" d="M608.359 243.238L633.058 228.719L608.361 243.24L608.359 243.238ZM606.21 241.976L561.384 215.623L606.21 241.976L643.299 220.17L606.21 241.976ZM666.921 208.809L665.308 207.86L665.013 207.686L666.921 208.809ZM662.624 208.809L606.208 175.64L578 192.224L561.384 201.993V199.465L569.848 194.491L604.058 174.377L606.208 173.112L606.366 173.205L606.744 173.428L608.357 174.377L664.775 207.544L662.624 208.807" fill="#D1EBFA"/>
<path opacity="0.3" d="M666.874 277.398L683.096 267.86L666.874 277.398ZM664.724 276.135L608.308 242.968V242.966L606.425 241.859L606.159 241.703L643.248 219.897L662.573 208.534L664.724 207.271L664.962 207.414L665.257 207.588L666.87 208.536L723.288 241.703L721.139 242.966L664.724 209.799L633.007 228.447L608.308 242.966L664.725 276.135L692.932 259.55L664.725 276.135" fill="#D1EBFA"/>
<path opacity="0.3" d="M725.436 311.557L723.625 310.492L723.285 310.292L666.869 277.125L664.987 276.019L664.721 275.862L692.927 259.278L721.135 242.694L723.285 241.431L725.436 242.694L784 277.127L725.436 311.557ZM666.869 277.125L723.285 310.292L779.701 277.127L723.285 243.958L683.092 267.588L666.869 277.125Z" fill="#D1EBFA"/>
<path d="M449.45 152.374H449.448L451.599 151.111L449.45 152.374Z" fill="#D1EBFA"/>
<path opacity="0.3" d="M561.384 270.612L569.122 266.063L561.384 270.612ZM561.384 268.085V268.083L579.363 257.514L561.384 268.085ZM608.359 242.995L606.746 242.046L606.476 241.886L608.359 242.993V242.995ZM604.062 242.993L561.384 217.905V215.377L606.21 241.73L604.06 242.993" fill="#D1EBFA"/>
<path opacity="0.3" d="M608.361 311.557L636.569 294.974L608.363 311.557H608.361ZM606.212 310.294V310.292L561.384 283.939L606.212 310.292L637.929 291.647L606.212 310.294ZM666.925 277.125L665.312 276.179L665.043 276.019L666.925 277.125ZM662.626 277.125L606.21 243.958L569.122 265.764L561.384 270.313V267.786L579.363 257.215L604.06 242.694L606.21 241.431L606.476 241.587L606.746 241.747L608.359 242.696L664.775 275.862L662.626 277.125Z" fill="#D1EBFA"/>
<path opacity="0.3" d="M666.874 346.295L701.084 326.181L666.874 346.295ZM664.723 345.032L608.308 311.863L606.497 310.798L606.159 310.601L637.876 291.953L662.573 277.432L664.723 276.169L664.989 276.325L665.259 276.485L666.872 277.432L723.288 310.601L721.139 311.863L664.723 278.697L636.516 295.281L608.308 311.863L664.725 345.03L692.931 328.448L664.725 345.03L664.723 345.032ZM725.438 311.863L723.825 310.917L723.627 310.798L725.438 311.863Z" fill="#D1EBFA"/>
<path opacity="0.3" d="M725.436 380.457L723.563 379.356L723.285 379.192L666.869 346.025L665.082 344.974L664.721 344.76L692.927 328.178L721.135 311.593L723.283 310.328L723.623 310.528L723.821 310.647L725.434 311.593L784 346.025L725.436 380.457ZM666.869 346.025L723.285 379.192L779.701 346.025L723.283 312.858L701.08 325.911L666.869 346.025Z" fill="#D1EBFA"/>
<path opacity="0.3" d="M256.941 174.339L293.071 153.098L256.941 174.339ZM254.79 173.074L198.374 139.907L196.42 138.757L196.226 138.642L254.79 104.215L255.326 104.531L299.624 130.573V133.099L254.79 106.742L198.374 139.907L254.792 173.074L272.245 162.814L254.792 173.074" fill="#D1EBFA"/>
<path opacity="0.3" d="M299.62 201.725L292.637 197.618L299.62 201.723V201.725ZM299.62 199.197L275.503 185.016L299.62 199.195V199.197ZM256.936 174.101L254.788 172.836L272.241 162.576L299.62 146.479V149.007L293.066 152.861L256.936 174.101Z" fill="#D1EBFA"/>
<path opacity="0.3" d="M561.384 339.51L585.928 325.081L561.384 339.51ZM561.384 336.982L572.687 330.338L561.384 336.982ZM608.361 311.892L606.748 310.945L606.55 310.827L608.361 311.892ZM604.064 311.892L561.384 286.802V284.274L606.212 310.629L604.062 311.892" fill="#D1EBFA"/>
<path opacity="0.3" d="M608.363 380.457L639.782 361.985L608.365 380.457H608.363ZM604.064 380.457L575.856 363.872L604.066 380.457H604.064ZM606.214 379.192L587.648 368.275L606.214 379.192L625.54 367.831L606.214 379.192ZM666.927 346.025L665.314 345.076L665.14 344.974L666.927 346.025ZM662.628 346.025L606.212 312.858L585.928 324.783L561.384 339.211V336.683L572.687 330.039L604.062 311.593L606.212 310.328V310.33L606.55 310.528L606.748 310.647L608.361 311.593L664.777 344.762L662.628 346.025Z" fill="#D1EBFA"/>
<path opacity="0.3" d="M666.874 415.195L691.573 400.673L666.874 415.195ZM664.725 413.93L608.308 380.763L606.303 379.583L606.159 379.498L625.485 368.137L662.573 346.331L664.724 345.067L665.084 345.28L665.259 345.383L666.872 346.331L723.288 379.498L721.139 380.763L664.724 347.596L639.727 362.291L608.308 380.763L664.725 413.93L692.932 397.345L664.725 413.93ZM725.438 380.763L723.825 379.814L723.565 379.662L725.438 380.763Z" fill="#D1EBFA"/>
<path opacity="0.3" d="M725.436 449.354L723.479 448.204L723.285 448.089L666.869 414.922L664.915 413.772L664.721 413.658L692.927 397.073L721.135 380.491L723.283 379.226L723.561 379.39L723.821 379.542L725.434 380.491L784 414.922L725.436 449.354ZM666.869 414.922L723.285 448.089L779.701 414.922L723.283 381.754L691.569 400.401L666.869 414.922Z" fill="#D1EBFA"/>
<path opacity="0.3" d="M139.832 174.341L168.04 157.756L139.834 174.341H139.832ZM135.535 174.341L76.9688 139.909L137.681 104.215L138.219 104.531L196.248 138.644L194.097 139.909L137.681 106.742L81.2674 139.909L137.683 173.076L165.891 156.494L137.683 173.076L135.535 174.341ZM198.396 139.909L196.783 138.961L196.442 138.759L198.396 139.909Z" fill="#D1EBFA"/>
<path opacity="0.3" d="M198.378 208.502L226.586 191.918L198.378 208.502ZM196.229 207.237L138.199 173.122L137.663 172.806L165.871 156.223L194.077 139.639L196.227 138.374L196.421 138.488L196.763 138.69L198.376 139.639L254.792 172.806L252.643 174.07L196.227 140.903L168.019 157.486L139.811 174.07L196.229 207.237L224.435 190.653L196.229 207.237Z" fill="#D1EBFA"/>
<path opacity="0.3" d="M256.941 243.24V243.238L292.981 222.051L256.941 243.24ZM254.79 241.976L198.374 208.809L196.42 207.658L196.226 207.544L224.432 190.959L252.64 174.377L254.79 173.112L256.939 174.377L275.505 185.292L299.622 199.473V201.999L292.64 197.894L254.79 175.64L226.582 192.224L198.374 208.809L254.79 241.976L286.169 223.53L254.792 241.976" fill="#D1EBFA"/>
<path opacity="0.3" d="M299.62 270.62L282.998 260.846L299.62 270.62ZM299.62 268.093L294.788 265.251L299.62 268.093ZM256.938 242.997L254.788 241.734L286.167 223.288L299.62 215.377V217.905L292.979 221.81L256.938 242.997Z" fill="#D1EBFA"/>
<path opacity="0.3" d="M547.582 413.959L526.56 401.601L547.582 413.959L555.748 409.158L547.584 413.959H547.582ZM562.389 407.781L570.105 403.246L562.389 407.781ZM561.531 405.759H561.529L586.543 391.054L561.531 405.759ZM608.294 380.794L606.682 379.845L606.29 379.614L608.294 380.794ZM603.998 380.794L575.788 364.209L561.316 355.7V353.172L587.579 368.612L606.146 379.529L603.996 380.794" fill="#D1EBFA"/>
<path opacity="0.3" d="M608.312 449.354L636.52 432.772L608.314 449.354H608.312ZM604.013 449.354L568.823 428.663L604.015 449.354H604.013ZM606.163 448.089L587.597 437.173L606.163 448.089L640.374 427.977L606.163 448.089ZM666.876 414.922L665.261 413.974L664.922 413.772L666.876 414.922ZM662.577 414.922L606.161 381.754L570.121 402.943L562.405 407.478C562.222 406.772 561.933 406.095 561.547 405.456L586.559 390.751L604.011 380.491L606.161 379.226L606.305 379.311L606.697 379.542L608.31 380.491L664.728 413.658L662.577 414.922ZM548.991 414.476L547.597 413.656L555.764 408.855C555.903 409.029 555.971 409.18 555.971 409.292C555.971 409.723 555.366 410.721 553.699 411.701L548.991 414.476Z" fill="#D1EBFA"/>
<path opacity="0.3" d="M666.874 484.091L691.87 469.395L666.874 484.093V484.091ZM664.724 482.828L608.308 449.661L606.301 448.481L606.159 448.396L640.37 428.284L662.573 415.229L664.724 413.964L664.918 414.079L665.257 414.281L666.872 415.229L723.288 448.396L721.139 449.659L664.724 416.492L636.516 433.078L608.308 449.661L664.725 482.828L701.929 460.955L664.725 482.828H664.724ZM725.438 449.661L723.825 448.712L723.482 448.511L725.438 449.661Z" fill="#D1EBFA"/>
<path opacity="0.3" d="M725.435 518.249L723.708 517.233L723.285 516.986L666.869 483.82V483.818L665.016 482.729L664.721 482.555L701.924 460.682L721.135 449.386L723.283 448.123L723.477 448.238L723.821 448.439L725.434 449.388L784 483.818L725.435 518.249ZM666.869 483.818L723.285 516.986L779.701 483.818L723.283 450.651L691.865 469.122L666.869 483.818Z" fill="#D1EBFA"/>
<path opacity="0.3" d="M139.832 243.238L171.548 224.593L139.834 243.24L139.832 243.238ZM135.535 243.238L76.9688 208.809L135.533 174.377L137.681 173.112L138.217 173.428L196.248 207.544L194.097 208.809L137.681 175.64L81.2674 208.809L137.683 241.976L174.888 220.103L137.683 241.976L135.535 243.238ZM198.396 208.809L196.783 207.86L196.442 207.658L198.396 208.809Z" fill="#D1EBFA"/>
<path opacity="0.3" d="M198.378 277.398L217.589 266.103L198.378 277.398ZM196.229 276.135L138.199 242.019L137.663 241.703L174.868 219.83L194.077 208.536L196.227 207.271L196.421 207.386L196.763 207.588L198.376 208.536L254.792 241.703L252.643 242.966L196.227 209.799L171.528 224.32L139.811 242.966L196.229 276.135L220.929 261.613L196.229 276.135Z" fill="#D1EBFA"/>
<path opacity="0.3" d="M256.941 311.557L277.225 299.632L256.941 311.557ZM254.79 310.294L198.374 277.127V277.125L196.492 276.019L196.226 275.862L220.925 261.341L252.64 242.694L254.788 241.431L256.939 242.694V242.696L294.788 264.948L299.62 267.79V270.317L282.998 260.543L254.788 243.958L217.585 265.831L198.374 277.125L254.792 310.294L285.88 292.016L254.792 310.294" fill="#D1EBFA"/>
<path opacity="0.3" d="M299.616 336.984L256.936 311.892L255.126 310.829L254.788 310.629L285.876 292.351L299.616 284.274V286.802L277.221 299.968L256.936 311.892L299.616 336.984Z" fill="#D1EBFA"/>
<path d="M545.451 414.849L524.428 402.49L526.578 401.227L547.6 413.584L545.451 414.849Z" fill="#D1EBFA"/>
<path opacity="0.3" d="M549.748 484.091L577.954 467.508L549.748 484.093V484.091ZM547.598 482.828L516.539 464.567L547.598 482.828L570.729 469.229L547.598 482.828ZM608.311 449.663L606.698 448.714L606.304 448.483L608.311 449.663ZM604.014 449.663L568.821 428.972L553.503 419.966L555.652 418.699L587.596 437.481L606.162 448.398L604.012 449.661L604.014 449.663ZM537.933 421.302L536.526 420.474L545.448 415.229L547.596 413.964L548.989 414.785L537.933 421.302Z" fill="#D1EBFA"/>
<path opacity="0.3" d="M608.314 518.247L639.402 499.971L608.314 518.247ZM606.163 516.984L549.746 483.818L549.747 483.816L547.791 482.667L547.597 482.553L570.728 468.954L604.011 449.388V449.386L606.161 448.123L606.303 448.208L606.697 448.439L608.31 449.388L664.726 482.555L662.577 483.818L606.161 450.651L577.954 467.233L549.747 483.816L606.163 516.984L626.537 505.007L606.163 516.984ZM666.876 483.82L665.263 482.871L665.023 482.729L666.876 483.818" fill="#D1EBFA"/>
<path d="M666.872 552.988L689.077 539.935L666.872 552.988ZM662.575 552.988L644.009 542.071L662.575 552.988ZM664.725 551.725L626.874 529.471L664.725 551.723L692.931 535.141L664.725 551.725ZM725.438 518.556L723.825 517.609L723.711 517.54L725.438 518.556ZM721.139 518.556L664.723 485.389L639.397 500.278L608.308 518.554L606.159 517.291L626.533 505.313L662.573 484.124L664.723 482.862L665.018 483.036L665.259 483.178L666.872 484.126L723.288 517.293L721.139 518.556Z" fill="#D1EBFA"/>
<path opacity="0.3" d="M723.285 588.412L722.75 588.094L664.721 553.98L666.867 552.716L664.721 551.453L692.927 534.868L721.135 518.284L723.283 517.021L723.706 517.268L723.821 517.337L725.434 518.284L784 552.716L723.285 588.412ZM666.867 552.716L723.285 585.882L779.701 552.716L723.283 519.549L689.073 539.663L666.867 552.716Z" fill="#D1EBFA"/>
<path opacity="0.3" d="M139.832 311.557L168.04 294.974L139.834 311.557H139.832ZM135.533 311.557L76.9688 277.123L135.533 242.694L137.681 241.431L138.217 241.747L196.248 275.862L194.097 277.125L137.681 243.958L81.2674 277.123L137.683 310.294L165.891 293.71L137.683 310.294L135.533 311.557ZM198.396 277.127L196.783 276.179L196.514 276.019L198.396 277.125" fill="#D1EBFA"/>
<path opacity="0.3" d="M198.378 346.295L226.586 329.711L198.378 346.295ZM196.227 345.032L138.199 310.917L137.663 310.601L165.871 294.016L194.077 277.432L196.227 276.169L196.493 276.325L196.763 276.485L198.376 277.434L254.792 310.601L252.643 311.863L196.227 278.697L168.019 295.281L139.811 311.863L196.229 345.03L224.435 328.448L196.229 345.032V345.03L196.227 345.032ZM256.942 311.863L255.329 310.917L255.131 310.8L256.942 311.863Z" fill="#D1EBFA"/>
<path opacity="0.3" d="M256.941 380.455L294.029 358.649L256.941 380.455ZM254.792 379.19H254.79L198.374 346.023L196.56 344.956L196.226 344.76L224.432 328.176L252.64 311.591L254.79 310.328L255.128 310.528L255.326 310.645L256.939 311.591L299.618 336.683V339.211L254.79 312.856L226.582 329.439L198.374 346.023L254.79 379.19L279.787 364.495L254.792 379.19Z" fill="#D1EBFA"/>
<path opacity="0.3" d="M315.503 415.223L331.488 405.825L315.503 415.223ZM313.352 413.959L311.332 412.771L313.352 413.959L329.338 404.562H329.34L313.352 413.959ZM304.92 409.002L256.936 380.792L254.98 379.642L254.788 379.527L279.782 364.832L299.614 353.172V355.7L294.025 358.986L256.936 380.792L304.922 409.002H304.92Z" fill="#D1EBFA"/>
<path d="M315.499 415.362L313.349 414.097L329.337 404.7L331.485 405.963L315.499 415.362Z" fill="#D1EBFA"/>
<path opacity="0.3" d="M491.182 518.289L519.39 501.707L491.182 518.289ZM489.032 517.027L458.048 498.81L489.032 517.027L517.24 500.442L489.033 517.027H489.032ZM549.744 483.86L548.133 482.911L547.79 482.709L549.746 483.858L549.744 483.86ZM545.447 483.858L514.391 465.599L516.537 464.335L547.596 482.595L545.447 483.858Z" fill="#D1EBFA"/>
<path opacity="0.3" d="M547.599 554.253V554.251V554.253ZM549.75 552.988L577.956 536.405L549.75 552.988ZM547.599 551.725L491.183 518.556L489.227 517.408L489.035 517.293L517.241 500.709L545.449 484.124L547.598 482.862L547.792 482.976L548.135 483.178L549.746 484.126L606.164 517.293L604.014 518.556L547.598 485.389L519.391 501.974L491.183 518.556L547.599 551.725L581.812 531.611L547.599 551.725Z" fill="#D1EBFA"/>
<path opacity="0.3" d="M606.163 588.412L605.626 588.094L547.597 553.98V553.978L549.747 552.716L547.597 551.453L581.81 531.339L604.011 518.284L606.161 517.021L608.312 518.284L626.876 529.2L664.728 551.455L666.874 552.717L664.728 553.982H664.726L606.163 588.412ZM549.747 552.716L606.163 585.882L662.577 552.717L644.011 541.801L606.161 519.549L577.954 536.133L549.747 552.716Z" fill="#D1EBFA"/>
<path opacity="0.3" d="M139.832 380.455L180.023 356.825L139.834 380.455H139.832ZM135.533 380.455L76.9688 346.021L135.531 311.591L137.681 310.328L138.217 310.645L196.246 344.76L194.097 346.023L137.681 312.856L81.2674 346.021L137.683 379.19L156.894 367.896L137.683 379.19L135.533 380.455ZM198.396 346.023L196.783 345.076L196.581 344.956L198.396 346.023Z" fill="#D1EBFA"/>
<path d="M198.378 415.195L226.586 398.61L198.378 415.195ZM196.229 413.93L138.199 379.814L137.663 379.498L156.874 368.204L194.077 346.331L196.227 345.067V345.069L196.561 345.264L196.763 345.385L198.376 346.331L254.792 379.498L252.643 380.763L196.227 347.596L180.003 357.133L139.811 380.763L196.229 413.93L218.433 400.877L196.229 413.93ZM256.942 380.763L255.329 379.814L254.986 379.613L256.942 380.763Z" fill="#D1EBFA"/>
<path opacity="0.3" d="M256.941 449.354L285.149 432.77L256.941 449.354ZM254.79 448.089L198.374 414.922L196.42 413.772L196.226 413.658L218.43 400.605L252.64 380.491L254.788 379.226H254.79L254.983 379.341L255.326 379.542L256.939 380.491L304.922 408.701C304.342 409.215 303.832 409.761 303.397 410.33L254.788 381.756L226.582 398.338L198.374 414.922L254.79 448.089L276.994 435.036L254.792 448.089H254.79ZM311.206 414.922L309.31 413.808C309.63 413.529 310.03 413.239 310.523 412.948L311.334 412.47L313.355 413.658L311.206 414.922Z" fill="#D1EBFA"/>
<path opacity="0.3" d="M315.503 484.09L334.828 472.729L315.503 484.092V484.09ZM311.202 484.09L286.208 469.395L311.204 484.09H311.202ZM313.352 482.828L276.149 460.955L313.352 482.828L341.419 466.326L313.352 482.828ZM256.938 449.661L254.788 448.396L276.992 435.343L303.028 420.035C303.451 420.62 303.961 421.168 304.553 421.666L285.146 433.076L256.938 449.661ZM328.562 425.434L313.352 416.492L311.072 417.834L309.366 416.83C309.209 416.739 309.069 416.646 308.947 416.555L311.204 415.229L313.352 413.964L315.503 415.229L330.708 424.17L328.562 425.434Z" fill="#D1EBFA"/>
<path opacity="0.3" d="M374.066 518.267L399.39 503.378L374.066 518.267ZM371.915 517.004L315.497 483.838L315.499 483.836L313.588 482.713L313.349 482.573L341.415 466.071L343.564 467.336L334.825 472.474L315.499 483.836L371.915 517.004L399.982 500.505L371.915 517.004Z" fill="#D1EBFA"/>
<path d="M430.478 554.249V554.247V554.249ZM432.626 552.984L464.343 534.338L432.626 552.984ZM428.328 552.984L390.478 530.732L428.328 552.984ZM430.478 551.721L409.253 539.241L430.478 551.721L458.684 535.137L430.478 551.721ZM491.191 518.552L489.578 517.606L489.234 517.404L491.191 518.552ZM486.892 518.552L455.911 500.337L458.057 499.073L489.04 517.289L486.892 518.552ZM374.062 518.55L371.912 517.287L399.978 500.788L402.126 502.051L399.386 503.661L374.06 518.55" fill="#D1EBFA"/>
<path opacity="0.3" d="M489.038 588.412L488.502 588.094L430.474 553.98V553.978L432.622 552.716L430.474 551.453L458.68 534.868L486.888 518.284L489.036 517.021H489.038L489.23 517.136L489.574 517.337L491.186 518.284L547.602 551.453L549.753 552.716L547.602 553.978V553.98L489.038 588.412ZM432.622 552.716L489.038 585.882L545.454 552.716L489.036 519.549L464.339 534.07L432.622 552.716Z" fill="#D1EBFA"/>
<path opacity="0.3" d="M139.834 449.352L160.207 437.376L139.834 449.352ZM135.535 449.35L76.9688 414.92L135.531 380.491L137.681 379.226L138.217 379.542L196.248 413.658L194.097 414.922L137.681 381.756L81.2674 414.92L137.683 448.087L173.722 426.9L137.683 448.087L135.535 449.35ZM198.396 414.922L196.783 413.974L196.442 413.772L198.396 414.922Z" fill="#D1EBFA"/>
<path opacity="0.3" d="M198.378 484.09L217.703 472.729L198.378 484.092V484.09ZM194.079 484.09L165.871 467.506L194.079 484.09ZM196.229 482.828L168.021 466.243L196.229 482.828L233.318 461.022L196.229 482.828ZM252.643 449.661L196.227 416.492L160.187 437.683L139.811 449.659L137.663 448.394L173.702 427.207L194.077 415.229L196.227 413.964L196.421 414.079L196.763 414.281L198.376 415.229L254.792 448.396L252.643 449.659" fill="#D1EBFA"/>
<path opacity="0.3" d="M256.941 518.249L285.147 501.667L256.941 518.249ZM254.79 516.986L198.374 483.819V483.818L196.453 482.689L196.226 482.555L233.315 460.749L252.64 449.386L254.788 448.123L256.939 449.388L276.15 460.682L313.353 482.555L311.204 483.818L286.208 469.122L254.788 450.651L217.7 472.456L198.374 483.818L254.79 516.986L282.998 500.402L254.792 516.986H254.79ZM315.501 483.819L313.89 482.871L313.591 482.695L315.503 483.818" fill="#D1EBFA"/>
<path opacity="0.3" d="M311.204 552.988L289.001 539.935L311.204 552.988ZM315.503 552.988L337.706 539.935L315.503 552.988ZM313.352 551.725L285.146 535.14L313.352 551.723L341.56 535.14L313.352 551.725ZM369.768 518.556L313.351 485.389L285.144 501.974L256.938 518.556L254.788 517.293L282.996 500.709L311.2 484.124H311.202L313.351 482.862L313.589 483.002L313.888 483.178L315.499 484.126L371.917 517.293L369.766 518.556" fill="#D1EBFA"/>
<path opacity="0.3" d="M371.915 588.412L371.38 588.096L313.349 553.98L315.499 552.716L313.349 551.453L341.557 534.868L369.763 518.284L371.913 517.021L374.064 518.284L409.254 538.975L430.48 551.455L432.628 552.717L430.48 553.98L430.478 553.982L371.915 588.412ZM315.499 552.716L371.915 585.882L428.329 552.717L390.48 530.465L371.913 519.549L337.703 539.663L315.499 552.716Z" fill="#D1EBFA"/>
<path opacity="0.3" d="M139.832 518.249L178.793 495.345L139.834 518.249H139.832ZM135.535 518.249L76.9688 483.818L135.533 449.386L137.681 448.123L139.832 449.388L168.04 465.972L196.246 482.557L194.097 483.819L165.889 467.235L137.681 450.651L81.2674 483.818L137.683 516.986L157.967 505.062L137.683 516.986L135.535 518.249ZM198.396 483.821L196.783 482.873L196.475 482.691L198.396 483.819" fill="#D1EBFA"/>
<path opacity="0.3" d="M196.229 554.251H196.227H196.229ZM198.378 552.986L234.51 531.745L198.378 552.986ZM196.229 551.723L138.199 517.607L137.663 517.291L157.947 505.367L194.077 484.124L196.227 482.862L196.454 482.996L196.763 483.178L198.376 484.126L254.792 517.293L252.643 518.556L196.227 485.389L178.773 495.65L139.811 518.554L196.229 551.723L213.682 541.462L196.229 551.723Z" fill="#D1EBFA"/>
<path opacity="0.3" d="M254.788 588.412L196.226 553.978L198.374 552.714L196.226 551.451L213.679 541.19L252.64 518.284L254.788 517.021L256.939 518.284L285.147 534.868L313.353 551.453L315.503 552.716L313.353 553.98L254.788 588.412ZM198.374 552.714L254.788 585.882L311.204 552.716L289.001 539.663L254.788 519.549L234.506 531.473L198.374 552.714Z" fill="#D1EBFA"/>
<path opacity="0.3" d="M137.683 588.412L137.148 588.094L76.9688 552.715L135.533 518.284L137.681 517.021L138.217 517.337L196.248 551.453L198.396 552.715L196.248 553.98H196.246L137.683 588.412ZM137.681 519.549L81.2674 552.715L137.683 585.882L194.097 552.715L137.681 519.549Z" fill="#D1EBFA"/>
<path d="M77.554 403.989C76.407 404.663 75.3008 405.505 74.2451 406.458C73.7871 391.298 63.0318 385.267 49.7982 393.047C39.0196 399.385 29.8867 412.952 26.6147 426.25C23.952 425.884 20.8275 426.59 17.4701 428.564C7.82099 434.237 0 448.032 0 459.375C0 470.72 7.82099 475.317 17.4701 469.645L77.554 434.322C84.6783 430.133 90.4518 419.949 90.4518 411.572C90.4518 403.197 84.6783 399.802 77.554 403.989Z" fill="white"/>
<path d="M543.647 496.82C543.647 500.502 541.112 504.972 537.982 506.814C534.853 508.654 532.317 507.162 532.317 503.482C532.317 499.804 534.853 495.33 537.982 493.492C541.112 491.652 543.647 493.142 543.647 496.82Z" fill="white"/>
<path d="M561.983 485.822C561.983 489.501 559.449 493.974 556.318 495.814C553.19 497.653 550.653 496.161 550.653 492.482C550.653 488.804 553.19 484.33 556.318 482.492C559.449 480.652 561.983 482.142 561.983 485.822Z" fill="white"/>
<path d="M580.39 475.4C580.39 479.08 577.855 483.552 574.725 485.392C571.597 487.232 569.06 485.74 569.06 482.062C569.06 478.382 571.597 473.91 574.725 472.07C577.855 470.23 580.39 471.721 580.39 475.4Z" fill="white"/>
<path d="M598.727 464.401C598.727 468.079 596.19 472.553 593.062 474.391C589.933 476.231 587.397 474.739 587.397 471.061C587.397 467.382 589.933 462.909 593.062 461.07C596.19 459.23 598.727 460.722 598.727 464.401Z" fill="white"/>
<path d="M279.194 599.878C279.194 603.558 276.658 608.032 273.529 609.872C270.401 611.71 267.864 610.218 267.864 606.54C267.864 602.862 270.401 598.388 273.529 596.548C276.658 594.71 279.194 596.2 279.194 599.878Z" fill="white"/>
<path d="M294.83 590.617C294.83 594.295 292.293 598.769 289.165 600.607C286.035 602.447 283.5 600.955 283.5 597.277C283.5 593.597 286.035 589.125 289.165 587.285C292.293 585.446 294.83 586.938 294.83 590.617Z" fill="white"/>
<path d="M279.194 581.35C279.194 585.028 276.658 589.502 273.529 591.344C270.401 593.182 267.864 591.692 267.864 588.012C267.864 584.334 270.401 579.86 273.529 578.022C276.658 576.182 279.194 577.672 279.194 581.35Z" fill="white"/>
<path d="M294.83 572.669C294.83 576.347 292.293 580.821 289.165 582.659C286.035 584.499 283.5 583.007 283.5 579.329C283.5 575.65 286.035 571.177 289.165 569.338C292.293 567.498 294.83 568.988 294.83 572.669Z" fill="white"/>
<path d="M226.674 139.537L215.344 146.197V132.875L226.674 126.216V139.537Z" fill="white"/>
<path d="M242.381 130.274L231.049 136.934V123.612L242.381 116.952V130.274Z" fill="white"/>
<path d="M226.815 156.907L215.485 163.566V150.245L226.815 143.585V156.907Z" fill="white"/>
<path d="M242.381 147.643L231.049 154.303V140.983L242.381 134.321V147.643Z" fill="white"/>
<path d="M594.699 89.7263C590.581 89.7263 587.751 86.3826 587.751 80.5982C587.751 72.4463 593.374 62.5335 600.308 58.4566C602.314 57.2768 604.207 56.7235 605.887 56.7235C606.506 56.7235 607.098 56.8005 607.655 56.9468C607.5 55.68 607.391 54.3698 607.391 52.9627C607.391 35.9237 619.14 15.205 633.631 6.68358C637.833 4.2133 641.798 3.04536 645.314 3.04536C650.422 3.04536 654.579 5.51366 657.122 10.0372C659.652 6.91875 662.554 4.28247 665.643 2.46633C668.49 0.792467 671.178 0 673.561 0C679.249 0 683.191 4.51764 683.373 12.3474C685.031 10.3633 686.911 8.67956 688.908 7.50569C690.847 6.36738 692.677 5.8259 694.299 5.8259C698.26 5.8259 700.979 9.04121 700.979 14.6023C700.979 17.537 700.221 20.7108 698.922 23.7364C697.967 17.6279 694.327 14.1675 689.351 14.1675C686.968 14.1675 684.278 14.96 681.433 16.6338C678.343 18.45 675.438 21.0863 672.909 24.2048C670.367 19.6812 666.21 17.2129 661.102 17.2129C657.585 17.2129 653.621 18.3808 649.419 20.8511C634.928 29.3706 623.181 50.0913 623.181 67.1302C623.181 68.5373 623.289 69.8475 623.445 71.1143C622.886 70.9661 622.294 70.891 621.673 70.891C619.994 70.891 618.102 71.4423 616.095 72.6221C611.925 75.0766 608.226 79.6437 605.944 84.6672L600.308 87.9813C598.291 89.1651 596.388 89.7263 594.699 89.7263Z" fill="#C4E6F9"/>
<path d="M610.477 103.585C606.357 103.585 603.53 100.242 603.53 94.4572C603.53 91.2102 604.421 87.6847 605.932 84.3587L688.897 35.5796C693.068 33.1291 696.743 28.483 698.911 23.4278C699.047 24.3013 699.13 25.2282 699.152 26.2064C700.811 24.2223 702.689 22.5385 704.686 21.3647C706.625 20.2244 708.455 19.6849 710.078 19.6849C714.039 19.6849 716.758 22.9002 716.758 28.4593C716.758 36.299 711.353 45.8283 704.686 49.7472L616.084 101.84C614.07 103.024 612.166 103.585 610.477 103.585Z" fill="#DAF0FC"/>
<path d="M605.946 84.3951C608.229 79.3715 611.928 74.8045 616.098 72.35C618.105 71.1702 619.997 70.6188 621.676 70.6188C622.297 70.6188 622.889 70.6939 623.447 70.8422C623.292 69.5754 623.184 68.2652 623.184 66.8581C623.184 49.8191 634.931 29.0985 649.422 20.579C653.623 18.1087 657.588 16.9407 661.105 16.9407C666.213 16.9407 670.37 19.409 672.912 23.9326C675.441 20.8141 678.346 18.1779 681.435 16.3617C684.28 14.6878 686.97 13.8954 689.353 13.8954C694.329 13.8954 697.97 17.3557 698.925 23.4642C696.757 28.5194 693.082 33.1655 688.911 35.616L605.946 84.3951Z" fill="#E3F4FD"/>
<path d="M720.463 35.874C718.465 37.0499 716.588 38.7317 714.929 40.7178C714.669 29.6075 706.84 25.1669 697.196 30.8347C694.109 32.6508 691.204 35.2891 688.675 38.4076C684.38 30.7675 675.49 28.9948 665.185 35.0539C650.692 43.5734 638.946 64.2941 638.946 81.333C638.946 82.7401 639.053 84.0503 639.207 85.3171C637.142 84.7697 634.607 85.2104 631.859 86.8249C624.927 90.9019 619.307 100.817 619.307 108.968C619.307 117.122 624.927 120.427 631.859 116.352L720.463 64.2585C727.128 60.3396 732.533 50.8103 732.533 42.9706C732.533 35.133 727.128 31.9572 720.463 35.874Z" fill="white"/>
<path d="M236.329 413.128H236.348H236.329ZM208.67 396.868V426.168L233.588 411.518V382.214L208.67 396.868ZM205.93 433.79C205.456 433.79 204.985 433.665 204.56 433.416C203.711 432.92 203.189 431.995 203.189 430.999V395.255C203.189 394.257 203.711 393.337 204.56 392.839L234.959 374.968C235.807 374.47 236.849 374.47 237.699 374.968C238.547 375.464 239.069 376.385 239.069 377.383V413.128C239.069 414.126 238.547 415.047 237.699 415.545L207.3 433.416C206.875 433.665 206.403 433.79 205.93 433.79Z" fill="white"/>
<path opacity="0.3" d="M185.059 607.941L141.216 582.165L185.057 556.391L228.899 582.167L185.059 607.941Z" fill="#0030AD"/>
<path d="M147.877 562.979L185.053 584.836L222.227 562.979L185.051 541.126L147.877 562.979ZM185.053 592.15C184.477 592.15 183.902 591.997 183.388 591.695L139.546 565.919C138.515 565.312 137.877 564.192 137.877 562.979C137.877 561.767 138.515 560.647 139.546 560.04L183.386 534.266C184.417 533.659 185.686 533.659 186.716 534.266L230.559 560.04C231.591 560.647 232.228 561.767 232.228 562.979C232.228 564.192 231.593 565.312 230.559 565.919L186.718 591.695C186.204 591.997 185.63 592.15 185.053 592.15Z" fill="white"/>
<path fill-rule="evenodd" clip-rule="evenodd" d="M228.907 543.094L185.067 568.868V517.32L228.907 491.547V543.094Z" fill="url(#paint0_linear_37_2081)"/>
<path fill-rule="evenodd" clip-rule="evenodd" d="M185.057 517.04L141.216 491.266L185.055 465.492L228.895 491.266L185.057 517.04Z" fill="url(#paint1_linear_37_2081)"/>
<path fill-rule="evenodd" clip-rule="evenodd" d="M185.057 568.868L141.216 543.094V491.547L185.057 517.32V568.868Z" fill="url(#paint2_linear_37_2081)"/>
<path d="M169.254 540.963L156.995 533.755V519.337L169.254 526.546V540.963Z" fill="white"/>
<path opacity="0.3" d="M675.94 330.614L632.1 304.838L675.937 279.064L719.781 304.838L675.94 330.614Z" fill="#0030AD"/>
<path d="M638.76 285.073L675.934 306.928L713.108 285.073L675.93 263.22L638.76 285.073ZM675.934 314.242C675.359 314.242 674.783 314.09 674.267 313.785L630.426 288.013C629.396 287.407 628.759 286.284 628.759 285.073C628.759 283.861 629.396 282.741 630.426 282.134L674.267 256.36C675.297 255.753 676.566 255.753 677.599 256.36L721.441 282.134C722.471 282.741 723.108 283.861 723.108 285.073C723.108 286.284 722.471 287.407 721.441 288.013L677.601 313.785C677.083 314.09 676.51 314.242 675.934 314.242Z" fill="white"/>
<path fill-rule="evenodd" clip-rule="evenodd" d="M719.79 265.188L675.95 290.964V239.416L719.79 213.64V265.188Z" fill="url(#paint3_linear_37_2081)"/>
<path fill-rule="evenodd" clip-rule="evenodd" d="M675.938 239.136L632.1 213.36L675.935 187.587L719.779 213.362L675.938 239.136Z" fill="url(#paint4_linear_37_2081)"/>
<path fill-rule="evenodd" clip-rule="evenodd" d="M675.938 290.964L632.1 265.188V213.64L675.938 239.416V290.964Z" fill="url(#paint5_linear_37_2081)"/>
<path d="M660.14 263.057L647.877 255.849V241.431L660.14 248.638V263.057Z" fill="white"/>
<path d="M663.655 214.05L675.831 206.693L688.175 213.752L676 221.109L663.655 214.05Z" fill="white"/>
<path opacity="0.3" d="M675.94 607.941L632.1 582.165L675.937 556.391L719.781 582.167L675.94 607.941Z" fill="#0030AD"/>
<path d="M638.758 562.979L675.934 584.836L713.11 562.979L675.93 541.126L638.758 562.979ZM675.934 592.15C675.359 592.15 674.783 591.997 674.267 591.695L630.426 565.919C629.396 565.312 628.759 564.192 628.759 562.979C628.759 561.767 629.396 560.647 630.426 560.04L674.267 534.266C675.297 533.659 676.566 533.659 677.599 534.266L721.441 560.04C722.471 560.647 723.108 561.767 723.108 562.979C723.108 564.192 722.473 565.312 721.441 565.919L677.601 591.695C677.083 591.997 676.51 592.15 675.934 592.15Z" fill="white"/>
<path fill-rule="evenodd" clip-rule="evenodd" d="M719.79 543.094L675.95 568.868V517.32L719.79 491.547V543.094Z" fill="url(#paint6_linear_37_2081)"/>
<path fill-rule="evenodd" clip-rule="evenodd" d="M675.938 517.04L632.1 491.266L675.935 465.492L719.777 491.266L675.938 517.04Z" fill="url(#paint7_linear_37_2081)"/>
<path fill-rule="evenodd" clip-rule="evenodd" d="M675.938 568.868L632.1 543.094V491.547L675.938 517.32V568.868Z" fill="url(#paint8_linear_37_2081)"/>
<path d="M660.14 540.963L647.877 533.755V519.337L660.14 526.546V540.963Z" fill="white"/>
<path opacity="0.3" d="M185.059 330.614L141.216 304.838L185.057 279.064L228.899 304.838L185.059 330.614Z" fill="#0030AD"/>
<path d="M147.879 285.073L185.053 306.928L222.225 285.073L185.051 263.22L147.879 285.073ZM185.053 314.242C184.477 314.242 183.902 314.09 183.388 313.785L139.546 288.013C138.515 287.407 137.877 286.284 137.877 285.073C137.877 283.861 138.515 282.741 139.546 282.134L183.386 256.36C184.417 255.753 185.686 255.753 186.716 256.36L230.559 282.134C231.591 282.741 232.228 283.861 232.228 285.073C232.228 286.284 231.591 287.407 230.559 288.013L186.718 313.785C186.204 314.09 185.63 314.242 185.053 314.242Z" fill="white"/>
<path fill-rule="evenodd" clip-rule="evenodd" d="M228.907 265.188L185.067 290.964V239.416L228.907 213.64V265.188Z" fill="url(#paint9_linear_37_2081)"/>
<path fill-rule="evenodd" clip-rule="evenodd" d="M185.057 239.136L141.216 213.36L185.055 187.587L228.895 213.362L185.057 239.136Z" fill="url(#paint10_linear_37_2081)"/>
<path fill-rule="evenodd" clip-rule="evenodd" d="M185.057 290.964L141.216 265.188V213.64L185.057 239.416V290.964Z" fill="url(#paint11_linear_37_2081)"/>
<path d="M169.254 263.057L156.995 255.849V241.431L169.254 248.638V263.057Z" fill="white"/>
<path d="M527.546 330.953L524.215 325.074L651.707 250.116L655.039 255.995L527.546 330.953Z" fill="white"/>
<path opacity="0.3" d="M420.11 512.285L307.673 446.182C303.552 443.759 304.071 439.528 308.827 436.732L427.997 366.487C432.756 363.691 439.952 363.385 444.072 365.807L556.51 431.91C560.63 434.335 560.112 438.564 555.355 441.362L436.185 511.605C431.427 514.403 424.231 514.708 420.11 512.285Z" fill="#0030AD"/>
<path d="M421.839 482.62C424.926 484.434 430.881 484.116 434.581 481.94L553.75 411.697C555.417 410.717 556.022 409.719 556.022 409.288C556.022 409.033 555.677 408.577 554.906 408.122L442.47 342.019C439.383 340.203 433.429 340.521 429.728 342.699L310.559 412.94C308.892 413.92 308.287 414.918 308.287 415.351C308.287 415.602 308.632 416.062 309.405 416.515L421.839 482.62ZM427.17 490.572C423.96 490.572 420.87 489.886 418.507 488.497L306.071 422.394C303.243 420.73 301.623 418.163 301.623 415.351C301.623 412.177 303.664 409.158 307.223 407.063L426.392 336.822C432.159 333.429 440.683 333.13 445.803 336.14L558.239 402.245C561.066 403.905 562.687 406.472 562.687 409.288C562.687 412.462 560.645 415.481 557.086 417.572L437.917 487.815C434.814 489.641 430.912 490.572 427.17 490.572Z" fill="white"/>
<path fill-rule="evenodd" clip-rule="evenodd" d="M427.985 459.197C429.517 458.102 430.469 455.855 430.469 452.745V173.218C430.469 170.285 429.621 167.122 428.24 164.343L449.438 151.879L451.586 150.616L508 117.449L510.149 116.186L559.068 87.4246C560.465 90.217 561.334 93.3967 561.334 96.3472V375.874C561.334 379.099 560.302 381.383 558.67 382.429L558.674 382.441L558.441 382.577L558.379 382.615L541.584 392.478L534.916 396.395L526.578 401.292L524.428 402.555L515.503 407.796L427.985 459.197Z" fill="url(#paint12_linear_37_2081)"/>
<path fill-rule="evenodd" clip-rule="evenodd" d="M428.244 164.292C426.772 161.331 424.698 158.806 422.398 157.454L307.686 90.0136C306.547 89.3436 305.464 89.0274 304.48 89.0274C303.835 89.0274 303.232 89.1638 302.688 89.4286L433.324 12.6821C433.932 12.3382 434.615 12.1584 435.354 12.1584C436.334 12.1584 437.413 12.4746 438.551 13.1425L553.261 80.583C555.547 81.9269 557.608 84.4347 559.077 87.3714L510.152 116.137L508.002 117.4L451.59 150.567L449.44 151.83L428.244 164.292Z" fill="url(#paint13_linear_37_2081)"/>
<path d="M422.421 459.049L307.709 391.609C303.249 388.986 299.632 381.951 299.632 375.894V96.3675C299.632 90.3104 303.249 87.5259 307.709 90.1483L422.421 157.589C426.879 160.211 430.497 167.247 430.497 173.304V452.83C430.497 458.889 426.879 461.672 422.421 459.049Z" fill="#5593CE"/>
<path d="M424.891 156.426L310.182 88.9856C307.601 87.4699 305.305 87.7702 303.826 89.4639C304.983 89.2761 306.31 89.5607 307.721 90.3907L422.434 157.831C426.891 160.454 430.509 167.491 430.509 173.546V453.073C430.509 455.624 429.863 457.584 428.786 458.817C431.277 458.414 432.968 455.808 432.968 451.667V172.141C432.968 166.086 429.352 159.049 424.891 156.426Z" fill="white"/>
<path d="M415.216 442.228L314.939 383.274C311.038 380.981 307.876 374.829 307.876 369.535V109.933C307.876 104.639 311.038 102.206 314.939 104.498L415.216 163.453C419.117 165.745 422.278 171.895 422.278 177.19V436.794C422.278 442.088 419.117 444.521 415.216 442.228Z" fill="#1F3E79"/>
<path d="M418.492 440.263L318.215 381.308C314.316 379.016 311.154 372.862 311.154 367.57V107.968C311.154 106.163 311.529 104.701 312.167 103.636C309.644 103.614 307.876 105.972 307.876 109.93V369.532C307.876 374.826 311.038 380.978 314.939 383.271L415.216 442.225C417.786 443.737 420.027 443.184 421.263 441.123C420.413 441.117 419.476 440.84 418.492 440.263Z" fill="#386DAB"/>
<path d="M415.183 322.977L377.912 301.065L318.466 336.012L422.245 397.026V336.716C422.245 331.421 419.084 325.269 415.183 322.977Z" fill="#1F3E79"/>
<path d="M415.183 269.712L377.912 247.799L318.466 282.747L422.245 343.761V283.45C422.245 278.154 419.084 272.004 415.183 269.712Z" fill="#1F3E79"/>
<path d="M415.183 217.026L377.912 195.113L318.466 230.061L422.245 291.073V230.764C422.245 225.468 419.084 219.318 415.183 217.026Z" fill="#1F3E79"/>
<path d="M415.183 163.762L377.912 141.848L318.466 176.797L422.245 237.809V177.501C422.245 172.205 419.084 166.055 415.183 163.762Z" fill="#1F3E79"/>
<path d="M415.183 163.727L332.668 115.215L318.466 123.565L422.245 184.576V177.466C422.245 172.17 419.084 166.02 415.183 163.727Z" fill="#1F3E79"/>
<path d="M422.245 184.335L318.466 123.321V156.944L422.245 217.956V184.335Z" fill="#5593CE"/>
<path d="M422.245 237.6L318.466 176.586V210.209L422.245 271.223V237.6Z" fill="#5593CE"/>
<path d="M422.245 290.865L318.466 229.851V263.477L422.245 324.489V290.865Z" fill="#5593CE"/>
<path d="M422.245 344.129L318.466 283.117V316.74L422.245 377.752V344.129Z" fill="#5593CE"/>
<path d="M422.245 397.396L318.466 336.382V370.005L422.245 431.017V397.396Z" fill="#5593CE"/>
<path d="M413.139 205.832L334.97 159.877C332.765 158.578 330.976 155.098 330.976 152.1V143.097C330.976 140.101 332.765 138.723 334.97 140.02L413.139 185.977C415.343 187.273 417.133 190.755 417.133 193.749V202.755C417.133 205.753 415.343 207.128 413.139 205.832Z" fill="#1F3E79"/>
<path d="M413.579 206.058C413.434 205.994 413.288 205.919 413.139 205.832L334.97 159.877C332.765 158.579 330.976 155.099 330.976 152.101C330.976 155.099 332.765 158.579 334.97 159.877L413.139 205.832C413.288 205.919 413.434 205.994 413.579 206.058ZM330.976 143.097C330.976 140.874 331.96 139.542 333.368 139.532C331.96 139.542 330.976 140.874 330.976 143.097ZM333.392 139.532C333.39 139.532 333.388 139.532 333.386 139.532C333.388 139.532 333.39 139.532 333.392 139.532Z" fill="#4068A4"/>
<path d="M414.711 206.316C414.358 206.316 413.977 206.233 413.579 206.058C413.434 205.994 413.288 205.919 413.139 205.832L334.97 159.877C332.765 158.579 330.976 155.099 330.976 152.101V143.097C330.976 140.874 331.96 139.542 333.368 139.532H333.392C333.875 139.534 334.409 139.69 334.97 140.02L335.07 140.079C334.985 140.471 334.925 140.894 334.925 141.372V150.378C334.925 153.373 336.714 156.854 338.921 158.152L416.987 204.048C416.671 205.486 415.825 206.316 414.711 206.316Z" fill="#233066"/>
<path d="M388.586 181.596L341.55 153.943C340.771 153.486 340.143 152.263 340.143 151.206C340.143 150.152 340.771 149.668 341.55 150.127L388.586 177.78C389.362 178.236 389.993 179.46 389.993 180.515C389.993 181.57 389.362 182.054 388.586 181.596Z" fill="white"/>
<path d="M413.139 259.097L334.97 213.142C332.765 211.842 330.976 208.363 330.976 205.366V196.36C330.976 193.366 332.765 191.988 334.97 193.285L413.139 239.242C415.343 240.538 417.133 244.02 417.133 247.014V256.02C417.133 259.018 415.343 260.393 413.139 259.097Z" fill="#1F3E79"/>
<path d="M413.476 259.293C413.471 259.289 413.467 259.287 413.461 259.285C413.467 259.287 413.471 259.289 413.476 259.293ZM413.451 259.281C413.348 259.23 413.244 259.175 413.139 259.113L334.97 213.158C332.765 211.858 330.976 208.38 330.976 205.382C330.976 208.38 332.765 211.858 334.97 213.158L413.139 259.113C413.244 259.175 413.348 259.23 413.451 259.281ZM330.976 196.267C330.995 194.953 331.366 193.963 331.963 193.386C331.366 193.963 330.995 194.953 330.976 196.267ZM331.967 193.384C331.969 193.38 331.973 193.378 331.975 193.376C331.973 193.378 331.969 193.38 331.967 193.384Z" fill="#4068A4"/>
<path d="M414.711 259.582C414.328 259.582 413.913 259.483 413.476 259.277C413.471 259.273 413.467 259.271 413.461 259.269C413.457 259.267 413.455 259.265 413.451 259.265C413.348 259.214 413.244 259.159 413.139 259.097L334.97 213.142C332.765 211.842 330.976 208.364 330.976 205.366V196.36C330.976 196.325 330.976 196.287 330.976 196.252C330.995 194.937 331.366 193.947 331.963 193.37C331.965 193.368 331.965 193.368 331.967 193.368C331.969 193.364 331.973 193.362 331.975 193.36C332.361 192.993 332.841 192.797 333.384 192.797C333.871 192.797 334.407 192.955 334.97 193.287L335.07 193.345C334.985 193.736 334.925 194.159 334.925 194.637V203.643C334.925 206.641 336.714 210.119 338.921 211.417L416.987 257.313C416.671 258.752 415.825 259.582 414.711 259.582Z" fill="#233066"/>
<path d="M388.586 234.282L341.55 206.629C340.771 206.172 340.143 204.949 340.143 203.894C340.143 202.838 340.771 202.354 341.55 202.813L388.586 230.466C389.362 230.922 389.993 232.146 389.993 233.199C389.993 234.256 389.362 234.74 388.586 234.282Z" fill="white"/>
<path d="M413.139 312.362L334.97 266.407C332.765 265.109 330.976 261.629 330.976 258.631V249.627C330.976 246.631 332.765 245.252 334.97 246.552L413.139 292.507C415.343 293.804 417.133 297.286 417.133 300.282V309.285C417.133 312.281 415.343 313.661 413.139 312.362Z" fill="#1F3E79"/>
<path d="M330.976 249.628C330.976 247.401 331.963 246.067 333.378 246.063C331.963 246.067 330.976 247.401 330.976 249.628ZM335.07 246.612L334.97 246.553L335.07 246.61V246.612ZM334.97 246.553C334.946 246.539 334.923 246.525 334.898 246.511C334.923 246.525 334.946 246.539 334.97 246.553ZM333.39 246.063C333.388 246.063 333.386 246.063 333.384 246.063C333.386 246.063 333.388 246.063 333.39 246.063Z" fill="#4068A4"/>
<path d="M414.711 312.847C414.229 312.847 413.698 312.691 413.139 312.363L334.97 266.408C332.765 265.109 330.976 261.629 330.976 258.631V249.628C330.976 247.401 331.963 246.067 333.378 246.063H333.39C333.854 246.065 334.364 246.209 334.898 246.511C334.923 246.525 334.946 246.539 334.97 246.553L335.07 246.612C334.985 247.005 334.925 247.424 334.925 247.902V256.908C334.925 259.906 336.714 263.384 338.921 264.685L416.987 310.578C416.671 312.017 415.825 312.847 414.711 312.847Z" fill="#233066"/>
<path d="M388.586 287.549L341.55 259.894C340.771 259.439 340.143 258.214 340.143 257.159C340.143 256.106 340.771 255.621 341.55 256.076L388.586 283.733C389.362 284.188 389.993 285.413 389.993 286.466C389.993 287.521 389.362 288.006 388.586 287.549Z" fill="#D4EBFA"/>
<path d="M413.139 366.207L334.97 320.252C332.765 318.951 330.976 315.473 330.976 312.475V303.47C330.976 300.476 332.765 299.098 334.97 300.395L413.139 346.352C415.343 347.648 417.133 351.13 417.133 354.124V363.13C417.133 366.126 415.343 367.503 413.139 366.207Z" fill="#1F3E79"/>
<path d="M413.502 366.399C413.498 366.397 413.494 366.395 413.49 366.393C413.494 366.395 413.498 366.397 413.502 366.399ZM413.478 366.387C413.366 366.334 413.253 366.274 413.139 366.207L334.97 320.252C332.765 318.952 330.976 315.474 330.976 312.476C330.976 315.474 332.765 318.952 334.97 320.252L413.139 366.207C413.253 366.274 413.366 366.334 413.478 366.387ZM330.976 303.47C330.976 301.249 331.96 299.917 333.368 299.907C331.96 299.917 330.976 301.249 330.976 303.47ZM333.392 299.907C333.39 299.907 333.388 299.907 333.386 299.907C333.388 299.907 333.39 299.907 333.392 299.907Z" fill="#4068A4"/>
<path d="M414.711 366.691C414.334 366.691 413.929 366.596 413.502 366.399L413.478 366.387C413.366 366.334 413.253 366.274 413.139 366.207L334.97 320.252C332.765 318.952 330.976 315.474 330.976 312.476V303.47C330.976 301.249 331.96 299.917 333.368 299.907H333.392C333.875 299.909 334.409 300.065 334.97 300.395L335.07 300.454C334.985 300.846 334.925 301.269 334.925 301.747V310.752C334.925 313.748 336.714 317.229 338.921 318.527L416.987 364.423C416.671 365.861 415.825 366.691 414.711 366.691Z" fill="#233066"/>
<path d="M388.586 341.393L341.55 313.739C340.771 313.283 340.143 312.06 340.143 311.002C340.143 309.949 340.771 309.465 341.55 309.921L388.586 337.577C389.362 338.033 389.993 339.256 389.993 340.31C389.993 341.367 389.362 341.851 388.586 341.393Z" fill="#ED3795"/>
<path d="M413.139 418.891L334.97 372.936C332.765 371.638 330.976 368.158 330.976 365.16V356.156C330.976 353.16 332.765 351.785 334.97 353.081L413.139 399.036C415.343 400.334 417.133 403.815 417.133 406.81V415.814C417.133 418.81 415.343 420.189 413.139 418.891Z" fill="#1F3E79"/>
<path d="M330.976 356.156C330.976 353.935 331.96 352.603 333.368 352.593C331.96 352.603 330.976 353.935 330.976 356.156ZM335.07 353.14L334.97 353.081L335.07 353.138V353.14ZM334.97 353.081C334.937 353.059 334.902 353.042 334.867 353.022C334.902 353.042 334.937 353.059 334.97 353.081ZM333.392 352.593C333.39 352.593 333.386 352.593 333.384 352.593C333.386 352.593 333.39 352.593 333.392 352.593Z" fill="#4068A4"/>
<path d="M414.711 419.375C414.229 419.375 413.698 419.219 413.139 418.891L334.97 372.936C332.765 371.638 330.976 368.158 330.976 365.16V356.156C330.976 353.935 331.96 352.603 333.368 352.593H333.392C333.846 352.595 334.345 352.733 334.867 353.022C334.902 353.042 334.937 353.059 334.97 353.081L335.07 353.14C334.985 353.534 334.925 353.953 334.925 354.433V363.437C334.925 366.434 336.714 369.913 338.921 371.211L416.987 417.107C416.671 418.543 415.825 419.375 414.711 419.375Z" fill="#233066"/>
<path d="M388.586 394.08L341.55 366.424C340.771 365.97 340.143 364.743 340.143 363.689C340.143 362.636 340.771 362.152 341.55 362.606L388.586 390.264C389.362 390.718 389.993 391.943 389.993 392.997C389.993 394.052 389.362 394.536 388.586 394.08Z" fill="#D4EBFA"/>
<path d="M326.639 161.75L318.466 156.944L326.639 161.748V161.75ZM326.639 128.127L318.466 123.321L326.639 128.127V128.125V128.127Z" fill="#1F3E79"/>
<path d="M326.639 128.127L318.466 123.321L326.639 128.125" fill="#1F3E79"/>
<path d="M326.639 161.748L318.466 156.944V123.321L326.639 128.127V161.75" fill="#3668A5"/>
<path d="M326.639 214.973L318.466 210.167L326.639 214.971V214.973Z" fill="#1F3E79"/>
<path d="M326.639 215.014L318.466 210.209V176.586L326.639 181.392V215.016" fill="#3668A5"/>
<path d="M326.639 268.281L318.466 263.477V229.851L326.639 234.657V268.281Z" fill="#3668A5"/>
<path d="M326.639 287.921L318.466 283.117L326.639 287.921Z" fill="#1F3E79"/>
<path d="M326.639 321.544L318.466 316.74V283.117L326.639 287.921V321.544Z" fill="#3668A5"/>
<path d="M326.639 374.769L318.466 369.962L326.639 374.767V374.769Z" fill="#1F3E79"/>
<path d="M326.639 341.188L318.466 336.382L326.639 341.186V341.188Z" fill="#1F3E79"/>
<path d="M326.639 374.81L318.466 370.006V336.382L326.639 341.188V374.812" fill="#3668A5"/>
<path d="M397.82 184.944C397.82 186.019 397.08 186.456 396.166 185.917C395.25 185.381 394.511 184.075 394.511 183C394.511 181.927 395.25 181.49 396.166 182.026C397.08 182.565 397.82 183.871 397.82 184.944Z" fill="#D4EBFA"/>
<path d="M404.856 188.997C404.856 190.072 404.115 190.509 403.201 189.97C402.287 189.434 401.547 188.128 401.547 187.053C401.547 185.979 402.287 185.543 403.201 186.078C404.115 186.618 404.856 187.924 404.856 188.997Z" fill="#ED3795"/>
<path d="M411.893 193.05C411.893 194.125 411.152 194.562 410.237 194.022C409.325 193.487 408.584 192.179 408.584 191.104C408.584 190.033 409.325 189.596 410.237 190.131C411.152 190.671 411.893 191.977 411.893 193.05Z" fill="#D4EBFA"/>
<path d="M397.82 237.631C397.82 238.704 397.08 239.141 396.166 238.606C395.25 238.066 394.511 236.76 394.511 235.687C394.511 234.612 395.25 234.175 396.166 234.714C397.08 235.25 397.82 236.556 397.82 237.631Z" fill="#ED3795"/>
<path d="M404.856 242.263C404.856 243.336 404.115 243.773 403.201 243.235C402.287 242.698 401.547 241.392 401.547 240.318C401.547 239.243 402.287 238.807 403.201 239.346C404.115 239.882 404.856 241.188 404.856 242.263Z" fill="#D4EBFA"/>
<path d="M411.893 246.317C411.893 247.39 411.152 247.826 410.237 247.289C409.325 246.751 408.584 245.445 408.584 244.37C408.584 243.297 409.325 242.86 410.237 243.398C411.152 243.935 411.893 245.242 411.893 246.317Z" fill="white"/>
<path d="M397.82 291.476C397.82 292.551 397.08 292.984 396.166 292.448C395.25 291.91 394.511 290.604 394.511 289.529C394.511 288.454 395.25 288.021 396.166 288.557C397.08 289.094 397.82 290.401 397.82 291.476Z" fill="white"/>
<path d="M404.856 295.529C404.856 296.604 404.115 297.036 403.201 296.501C402.287 295.963 401.547 294.657 401.547 293.582C401.547 292.507 402.287 292.074 403.201 292.61C404.115 293.147 404.856 294.454 404.856 295.529Z" fill="#ED3795"/>
<path d="M411.893 299.581C411.893 300.656 411.152 301.089 410.237 300.554C409.325 300.016 408.584 298.71 408.584 297.635C408.584 296.56 409.325 296.127 410.237 296.662C411.152 297.198 411.893 298.506 411.893 299.581Z" fill="white"/>
<path d="M397.82 344.162C397.82 345.237 397.08 345.672 396.166 345.135C395.25 344.597 394.511 343.291 394.511 342.216C394.511 341.141 395.25 340.708 396.166 341.243C397.08 341.781 397.82 343.087 397.82 344.162Z" fill="white"/>
<path d="M404.856 348.216C404.856 349.289 404.115 349.726 403.201 349.188C402.287 348.651 401.547 347.344 401.547 346.269C401.547 345.194 402.287 344.759 403.201 345.297C404.115 345.833 404.856 347.141 404.856 348.216Z" fill="#D4EBFA"/>
<path d="M411.893 352.267C411.893 353.342 411.152 353.777 410.237 353.241C409.325 352.703 408.584 351.397 408.584 350.322C408.584 349.247 409.325 348.812 410.237 349.35C411.152 349.885 411.893 351.194 411.893 352.267Z" fill="#D4EBFA"/>
<path d="M397.82 398.006C397.82 399.081 397.08 399.516 396.166 398.979C395.25 398.441 394.511 397.135 394.511 396.06C394.511 394.987 395.25 394.552 396.166 395.087C397.08 395.627 397.82 396.933 397.82 398.006Z" fill="white"/>
<path d="M404.856 402.059C404.856 403.134 404.115 403.569 403.201 403.031C402.287 402.494 401.547 401.187 401.547 400.112C401.547 399.039 402.287 398.604 403.201 399.14C404.115 399.679 404.856 400.986 404.856 402.059Z" fill="#ED3795"/>
<path d="M411.893 406.112C411.893 407.187 411.152 407.622 410.237 407.084C409.325 406.547 408.584 405.24 408.584 404.165C408.584 403.09 409.325 402.658 410.237 403.193C411.152 403.733 411.893 405.039 411.893 406.112Z" fill="#D4EBFA"/>
<path d="M449.679 184.491V417.959L543.979 362.518V129.05L449.679 184.491ZM447.744 421.374V183.352L448.227 183.07L545.914 125.637V363.659L545.43 363.939L447.744 421.374Z" fill="#1F3E79"/>
<path d="M520.54 232.645L476.739 258.397C473.795 260.127 471.41 258.291 471.41 254.297V229.564C471.41 225.57 473.795 220.93 476.739 219.199L520.54 193.449C523.48 191.718 525.867 193.554 525.867 197.55V222.278C525.867 226.274 523.48 230.916 520.54 232.645Z" fill="#1F3E79"/>
<path d="M521.632 192.966C521.883 193.66 522.028 194.488 522.028 195.447V220.179C522.028 224.173 519.641 228.815 516.701 230.544L472.897 256.296C472.535 256.51 472.177 256.668 471.836 256.777C472.626 258.958 474.533 259.711 476.769 258.397L520.571 232.645C523.511 230.916 525.898 226.274 525.898 222.278V197.549C525.898 194.047 524.066 192.208 521.632 192.966Z" fill="#5593CE"/>
<path d="M512.534 217.896C513.343 217.42 514.001 217.808 514.001 218.76V224.394C514.001 225.345 513.343 226.503 512.534 226.977C511.724 227.453 511.066 227.068 511.066 226.118V220.483C511.066 219.533 511.724 218.375 512.534 217.896Z" fill="white"/>
<path d="M506.277 222.529C507.087 222.053 507.742 222.438 507.742 223.393V228.321C507.742 229.272 507.087 230.43 506.277 230.906C505.468 231.382 504.812 230.997 504.812 230.045V225.116C504.812 224.163 505.468 223.005 506.277 222.529Z" fill="#D4EBFA"/>
<path d="M500.023 220.212C500.835 219.737 501.491 220.123 501.491 221.075V231.504C501.491 232.454 500.835 233.612 500.023 234.089C499.214 234.567 498.558 234.18 498.558 233.227V222.799C498.558 221.846 499.214 220.688 500.023 220.212Z" fill="#ED3795"/>
<path d="M493.7 217.897C494.509 217.421 495.165 217.806 495.165 218.759V235.197C495.165 236.149 494.509 237.305 493.7 237.784C492.888 238.26 492.232 237.873 492.232 236.92V220.484C492.232 219.529 492.888 218.371 493.7 217.897Z" fill="#D4EBFA"/>
<path d="M487.444 223.687C488.255 223.21 488.909 223.596 488.909 224.55V239.263C488.909 240.218 488.255 241.374 487.444 241.85C486.635 242.326 485.979 241.941 485.979 240.988V226.274C485.979 225.321 486.635 224.165 487.444 223.687Z" fill="#D4EBFA"/>
<path d="M481.12 234.108C481.93 233.632 482.586 234.017 482.586 234.97V242.96C482.586 243.914 481.93 245.072 481.12 245.547C480.309 246.023 479.653 245.638 479.653 244.685V236.693C479.653 235.741 480.309 234.585 481.12 234.108Z" fill="white"/>
<path d="M511.137 215.224C511.137 216.163 511.783 216.541 512.579 216.074C513.375 215.604 514.021 214.466 514.021 213.531C514.021 212.594 513.375 212.215 512.579 212.683C511.783 213.149 511.137 214.288 511.137 215.224Z" fill="#ED3795"/>
<path d="M511.137 209.437C511.137 210.373 511.783 210.751 512.579 210.284C513.375 209.816 514.021 208.678 514.021 207.741C514.021 206.804 513.375 206.425 512.579 206.893C511.783 207.364 511.137 208.5 511.137 209.437Z" fill="white"/>
<path d="M679.276 82.2136H672.61V213.897H679.276V82.2136Z" fill="white"/>
<path opacity="0.3" d="M423.042 633.37L356.065 593.991C351.955 591.575 352.471 587.351 357.216 584.561L421.888 546.54C426.635 543.75 433.815 543.448 437.926 545.863L504.903 585.241C509.015 587.658 508.499 591.879 503.752 594.669L439.08 632.692C434.333 635.482 427.153 635.785 423.042 633.37Z" fill="#0030AD"/>
<path d="M424.91 608.434C427.868 610.169 433.579 609.853 437.144 607.756L501.816 569.733C503.442 568.779 503.832 567.913 503.842 567.751C503.819 567.706 503.601 567.388 502.971 567.014L435.99 527.636C433.04 525.901 427.324 526.217 423.757 528.314L359.086 566.334C357.459 567.291 357.071 568.154 357.062 568.316C357.085 568.366 357.302 568.684 357.935 569.055L424.912 608.434H424.91ZM430.01 617.311C426.736 617.311 423.579 616.595 421.108 615.143H421.106L354.131 575.765C351.158 574.018 349.454 571.302 349.454 568.314C349.454 564.971 351.577 561.803 355.28 559.627L419.954 521.606C425.937 518.085 434.464 517.792 439.793 520.929L506.774 560.307C509.746 562.052 511.45 564.767 511.45 567.753C511.45 571.097 509.325 574.265 505.62 576.443L440.95 614.465C437.74 616.352 433.797 617.311 430.01 617.311Z" fill="white"/>
<path d="M507.646 543.48V519.949L455.825 519.918L437.915 509.388C433.804 506.972 426.624 507.276 421.877 510.066L405.167 519.892L353.301 519.86V544.063C353.184 545.7 354.081 547.279 356.054 548.439L423.032 587.817C427.142 590.232 434.323 589.929 439.07 587.139L503.741 549.118C506.48 547.508 507.801 545.423 507.646 543.48Z" fill="url(#paint14_linear_37_2081)"/>
<path fill-rule="evenodd" clip-rule="evenodd" d="M430.474 507.757C427.466 507.832 424.345 508.603 421.877 510.054L405.168 519.879L353.301 519.848V544.051C353.184 545.687 354.081 547.266 356.054 548.426L423.032 587.804C425.005 588.966 427.691 589.492 430.474 589.423V507.757Z" fill="url(#paint15_linear_37_2081)"/>
<path d="M359.171 519.92L353.301 519.916V544.118C353.184 545.755 354.081 547.334 356.054 548.494L359.171 550.326V519.92Z" fill="#D4EBFA"/>
<path d="M424.077 588.652C427.62 590.199 432.75 590.112 436.897 588.502V561.022H424.077V588.652Z" fill="url(#paint16_linear_37_2081)"/>
<path fill-rule="evenodd" clip-rule="evenodd" d="M423.042 563.891L356.065 524.515C351.955 522.098 352.471 517.875 357.216 515.085L421.888 477.064C426.635 474.274 433.815 473.971 437.926 476.386L504.903 515.764C509.015 518.181 508.499 522.401 503.752 525.193L439.08 563.215C434.333 566.006 427.153 566.308 423.042 563.891Z" fill="url(#paint17_linear_37_2081)"/>
<path d="M503.753 520.544L439.081 558.565C434.334 561.355 427.153 561.657 423.043 559.243L356.066 519.864C355.148 519.327 354.476 518.694 354.014 518.013C352.602 520.325 353.242 522.837 356.066 524.497L423.043 563.873C427.153 566.29 434.334 565.987 439.081 563.197L503.753 525.174C507.44 523.007 508.56 519.977 506.955 517.6C506.31 518.655 505.239 519.669 503.753 520.544Z" fill="white"/>
<path d="M483.004 549.673C483.004 551.43 481.793 553.566 480.301 554.446C478.804 555.323 477.593 554.612 477.593 552.855C477.593 551.096 478.804 548.962 480.301 548.082C481.793 547.205 483.004 547.916 483.004 549.673Z" fill="#D4EBFA"/>
<path d="M491.745 544.462C491.745 546.219 490.534 548.355 489.04 549.233C487.545 550.11 486.334 549.399 486.334 547.642C486.334 545.887 487.545 543.749 489.04 542.871C490.534 541.994 491.745 542.705 491.745 544.462Z" fill="#D4EBFA"/>
<path d="M500.416 539.252C500.416 541.01 499.205 543.147 497.711 544.024C496.216 544.902 495.005 544.19 495.005 542.433C495.005 540.677 496.216 538.542 497.711 537.661C499.205 536.783 500.416 537.495 500.416 539.252Z" fill="#D4EBFA"/>
<path d="M427.012 539.628L395.668 521.202C393.745 520.071 393.987 518.095 396.209 516.787L426.472 498.995C428.693 497.689 432.054 497.548 433.977 498.679L465.317 517.107C467.241 518.237 467 520.212 464.78 521.518L434.517 539.31C432.296 540.616 428.935 540.756 427.012 539.628Z" fill="url(#paint18_linear_37_2081)"/>
<path d="M430.014 523.949L425.676 521.4C425.413 521.244 425.444 520.971 425.75 520.791L429.94 518.329C430.247 518.149 430.711 518.127 430.977 518.285L435.314 520.834C435.58 520.991 435.545 521.263 435.238 521.445L431.052 523.906C430.746 524.087 430.278 524.107 430.014 523.949Z" fill="#D4EBFA"/>
<path d="M395.668 521.202L395.757 521.253L396.209 520.937L426.472 503.145C428.693 501.839 432.054 501.698 433.977 502.829L465.228 521.204C467.002 519.909 467.095 518.15 465.317 517.107L433.977 498.679C432.054 497.548 428.693 497.689 426.472 498.995L396.209 516.787C393.987 518.095 393.745 520.071 395.668 521.202Z" fill="#386DAB"/>
<path opacity="0.3" d="M668.519 459.679L601.543 420.301C597.433 417.884 597.947 413.662 602.696 410.872L667.366 372.85C672.111 370.059 679.293 369.757 683.402 372.172L750.381 411.55C754.491 413.967 753.977 418.188 749.228 420.98L684.558 459.001C679.811 461.791 672.631 462.094 668.519 459.679Z" fill="#0030AD"/>
<path d="M670.384 434.744C673.341 436.475 679.055 436.159 682.624 434.064L747.292 396.043C748.918 395.087 749.308 394.223 749.318 394.061C749.294 394.014 749.077 393.696 748.446 393.322L681.467 353.944C678.515 352.211 672.8 352.527 669.235 354.622L604.563 392.644C602.937 393.601 602.547 394.464 602.537 394.627C602.561 394.674 602.778 394.992 603.409 395.364L670.388 434.744H670.384ZM675.486 443.619C672.208 443.619 669.053 442.904 666.584 441.451H666.582L599.605 402.073C596.634 400.326 594.93 397.611 594.93 394.625C594.93 391.281 597.055 388.113 600.76 385.937L665.429 347.915C671.414 344.393 679.946 344.102 685.271 347.237L752.25 386.615C755.221 388.36 756.925 391.075 756.925 394.063C756.925 397.407 754.8 400.575 751.095 402.753L686.428 440.773C683.216 442.661 679.272 443.619 675.486 443.619Z" fill="white"/>
<path d="M753.124 369.79V346.257L701.305 346.228L683.391 335.696C679.282 333.281 672.1 333.584 667.355 336.374L650.643 346.2L598.778 346.17V370.371C598.66 372.007 599.557 373.586 601.532 374.746L668.508 414.125C672.62 416.539 679.8 416.237 684.547 413.447L749.217 375.426C751.957 373.816 753.277 371.733 753.124 369.79Z" fill="url(#paint19_linear_37_2081)"/>
<path fill-rule="evenodd" clip-rule="evenodd" d="M675.952 334.066C672.944 334.141 669.821 334.914 667.355 336.362L650.643 346.188L598.778 346.158V370.359C598.66 371.995 599.557 373.575 601.532 374.735L668.508 414.113C670.483 415.275 673.171 415.8 675.952 415.731V334.066Z" fill="url(#paint20_linear_37_2081)"/>
<path d="M604.647 346.226L598.778 346.224V370.425C598.66 372.061 599.557 373.64 601.532 374.801L604.647 376.634V346.226Z" fill="#D4EBFA"/>
<path d="M669.554 414.38C673.097 415.927 678.227 415.842 682.372 414.232V386.752H669.554V414.38Z" fill="url(#paint21_linear_37_2081)"/>
<path fill-rule="evenodd" clip-rule="evenodd" d="M668.519 390.202L601.543 350.824C597.433 348.407 597.947 344.184 602.696 341.393L667.366 303.373C672.111 300.582 679.293 300.28 683.402 302.695L750.381 342.073C754.491 344.49 753.977 348.711 749.228 351.504L684.558 389.524C679.811 392.315 672.631 392.617 668.519 390.202Z" fill="url(#paint22_linear_37_2081)"/>
<path d="M749.227 346.853L684.557 384.873C679.81 387.664 672.63 387.966 668.517 385.551L601.542 346.173C600.626 345.636 599.951 345.003 599.491 344.321C598.08 346.634 598.72 349.145 601.542 350.805L668.517 390.183C672.63 392.598 679.81 392.296 684.557 389.506L749.227 351.485C752.918 349.315 754.038 346.286 752.431 343.908C751.787 344.964 750.715 345.977 749.227 346.853Z" fill="white"/>
<path d="M728.479 375.982C728.479 377.737 727.268 379.873 725.773 380.752C724.281 381.63 723.07 380.918 723.07 379.161C723.07 377.405 724.281 375.268 725.773 374.391C727.268 373.513 728.479 374.225 728.479 375.982Z" fill="#D4EBFA"/>
<path d="M737.15 370.771C737.15 372.53 735.939 374.664 734.447 375.544C732.951 376.421 731.74 375.71 731.74 373.951C731.74 372.196 732.951 370.06 734.447 369.18C735.939 368.303 737.15 369.014 737.15 370.771Z" fill="#D4EBFA"/>
<path d="M745.892 365.561C745.892 367.318 744.681 369.454 743.187 370.331C741.693 371.209 740.481 370.497 740.481 368.74C740.481 366.986 741.693 364.849 743.187 363.97C744.681 363.092 745.892 363.802 745.892 365.561Z" fill="#D4EBFA"/>
<path d="M672.414 365.357L641.074 346.93C639.151 345.8 639.391 343.824 641.611 342.517L671.875 324.726C674.097 323.419 677.454 323.277 679.379 324.407L710.723 342.836C712.647 343.966 712.404 345.942 710.182 347.247L679.921 365.04C677.697 366.345 674.339 366.487 672.414 365.357Z" fill="url(#paint23_linear_37_2081)"/>
<path d="M675.418 350.257L671.083 347.707C670.817 347.551 670.852 347.28 671.158 347.099L675.344 344.638C675.653 344.456 676.117 344.437 676.381 344.593L680.72 347.142C680.986 347.298 680.953 347.573 680.646 347.753L676.456 350.215C676.148 350.395 675.684 350.415 675.418 350.257Z" fill="#D4EBFA"/>
<path d="M641.074 346.93L641.161 346.982L641.611 346.667L671.875 328.874C674.097 327.569 677.454 327.427 679.379 328.557L710.634 346.932C712.406 345.64 712.499 343.881 710.723 342.836L679.379 324.407C677.454 323.277 674.097 323.419 671.875 324.726L641.611 342.517C639.391 343.824 639.151 345.8 641.074 346.93Z" fill="url(#paint24_linear_37_2081)"/>
<path opacity="0.3" d="M177.639 459.679L110.66 420.301C106.549 417.884 107.066 413.662 111.813 410.872L176.484 372.85C181.231 370.059 188.412 369.757 192.522 372.172L259.499 411.55C263.61 413.967 263.094 418.188 258.349 420.98L193.677 459.001C188.928 461.791 181.749 462.094 177.639 459.679Z" fill="#0030AD"/>
<path d="M179.504 434.744C182.456 436.475 188.167 436.159 191.738 434.064L256.408 396.043C258.034 395.089 258.424 394.223 258.432 394.061C258.411 394.014 258.191 393.696 257.561 393.322L190.583 353.944C187.632 352.211 181.916 352.527 178.351 354.622L113.679 392.644C112.053 393.601 111.663 394.464 111.653 394.627C111.675 394.674 111.894 394.992 112.525 395.364L179.506 434.744H179.504ZM184.602 443.619C181.328 443.619 178.171 442.904 175.702 441.451H175.7L108.721 402.073C105.75 400.326 104.046 397.611 104.046 394.625C104.046 391.281 106.169 388.113 109.876 385.937L174.545 347.915C180.533 344.393 189.06 344.102 194.387 347.237L261.364 386.615C264.336 388.36 266.039 391.075 266.041 394.063C266.041 397.407 263.918 400.575 260.214 402.753L195.542 440.773C192.332 442.661 188.39 443.619 184.602 443.619Z" fill="white"/>
<path d="M262.242 369.79V346.257L210.424 346.228L192.511 335.696C188.401 333.281 181.22 333.584 176.473 336.374L159.762 346.2L107.895 346.17V370.371C107.78 372.007 108.675 373.586 110.649 374.746L177.628 414.125C181.738 416.539 188.917 416.237 193.666 413.447L258.338 375.426C261.074 373.816 262.396 371.733 262.242 369.79Z" fill="url(#paint25_linear_37_2081)"/>
<path fill-rule="evenodd" clip-rule="evenodd" d="M185.071 334.066C182.063 334.141 178.94 334.914 176.473 336.362L159.762 346.188L107.895 346.158V370.359C107.78 371.995 108.675 373.575 110.649 374.735L177.628 414.113C179.602 415.275 182.288 415.8 185.071 415.731V334.066Z" fill="url(#paint26_linear_37_2081)"/>
<path d="M113.768 346.226L107.895 346.224V370.425C107.78 372.061 108.675 373.64 110.649 374.801L113.768 376.634V346.226Z" fill="#D4EBFA"/>
<path d="M178.6 414.38C182.147 415.927 187.276 415.842 191.422 414.232V386.752H178.6V414.38Z" fill="url(#paint27_linear_37_2081)"/>
<path fill-rule="evenodd" clip-rule="evenodd" d="M177.639 390.202L110.66 350.824C106.549 348.407 107.066 344.184 111.813 341.393L176.484 303.373C181.231 300.582 188.412 300.28 192.522 302.695L259.499 342.073C263.61 344.49 263.094 348.711 258.349 351.504L193.677 389.524C188.928 392.315 181.749 392.617 177.639 390.202Z" fill="url(#paint28_linear_37_2081)"/>
<path d="M258.347 346.853L193.676 384.873C188.927 387.664 181.748 387.966 177.638 385.551L110.659 346.173C109.745 345.636 109.069 345.003 108.609 344.321C107.196 346.634 107.837 349.145 110.659 350.805L177.638 390.183C181.748 392.598 188.927 392.296 193.676 389.506L258.347 351.485C262.035 349.315 263.156 346.286 261.548 343.908C260.905 344.964 259.834 345.977 258.347 346.853Z" fill="white"/>
<path d="M237.598 375.982C237.598 377.737 236.387 379.873 234.893 380.752C233.399 381.63 232.188 380.918 232.188 379.161C232.188 377.405 233.399 375.268 234.893 374.391C236.387 373.513 237.598 374.225 237.598 375.982Z" fill="#D4EBFA"/>
<path d="M246.268 370.771C246.268 372.53 245.057 374.664 243.562 375.544C242.07 376.421 240.857 375.71 240.857 373.951C240.857 372.196 242.07 370.06 243.562 369.18C245.057 368.303 246.268 369.014 246.268 370.771Z" fill="#D4EBFA"/>
<path d="M255.011 365.561C255.011 367.318 253.8 369.454 252.305 370.331C250.811 371.209 249.6 370.497 249.6 368.74C249.6 366.986 250.811 364.849 252.305 363.97C253.8 363.092 255.011 363.802 255.011 365.561Z" fill="#D4EBFA"/>
<path d="M181.532 365.357L150.192 346.93C148.267 345.8 148.509 343.824 150.73 342.517L180.993 324.726C183.213 323.419 186.574 323.277 188.497 324.407L219.84 342.836C221.765 343.966 221.524 345.942 219.302 347.247L189.037 365.04C186.817 366.345 183.456 366.487 181.532 365.357Z" fill="url(#paint29_linear_37_2081)"/>
<path d="M184.539 350.257L180.203 347.707C179.935 347.551 179.968 347.28 180.277 347.099L184.463 344.638C184.77 344.456 185.235 344.437 185.501 344.593L189.837 347.142C190.104 347.298 190.072 347.573 189.763 347.753L185.575 350.215C185.268 350.395 184.804 350.415 184.539 350.257Z" fill="#D4EBFA"/>
<path d="M150.192 346.93L150.281 346.982L150.73 346.667L180.993 328.874C183.213 327.569 186.574 327.427 188.497 328.557L219.75 346.932C221.526 345.64 221.617 343.881 219.84 342.836L188.497 324.407C186.574 323.277 183.213 323.419 180.993 324.726L150.73 342.517C148.509 343.824 148.267 345.8 150.192 346.93Z" fill="#386DAB"/>
<defs>
<linearGradient id="paint0_linear_37_2081" x1="231.461" y1="530.052" x2="179.627" y2="530.052" gradientUnits="userSpaceOnUse">
<stop stop-color="#008EFF"/>
<stop offset="0.753096" stop-color="#88CCFF"/>
<stop offset="1" stop-color="#BEE0FF"/>
</linearGradient>
<linearGradient id="paint1_linear_37_2081" x1="267.662" y1="491.163" x2="135.088" y2="491.163" gradientUnits="userSpaceOnUse">
<stop stop-color="#008EFF"/>
<stop offset="0.320247" stop-color="#88CCFF"/>
<stop offset="1" stop-color="#BEE0FF"/>
</linearGradient>
<linearGradient id="paint2_linear_37_2081" x1="187.61" y1="530.052" x2="135.776" y2="530.052" gradientUnits="userSpaceOnUse">
<stop stop-color="#008EFF"/>
<stop offset="0.753096" stop-color="#88CCFF"/>
<stop offset="1" stop-color="#BEE0FF"/>
</linearGradient>
<linearGradient id="paint3_linear_37_2081" x1="722.344" y1="252.146" x2="670.509" y2="252.146" gradientUnits="userSpaceOnUse">
<stop stop-color="#008EFF"/>
<stop offset="0.753096" stop-color="#88CCFF"/>
<stop offset="1" stop-color="#BEE0FF"/>
</linearGradient>
<linearGradient id="paint4_linear_37_2081" x1="758.545" y1="213.258" x2="625.972" y2="213.258" gradientUnits="userSpaceOnUse">
<stop stop-color="#008EFF"/>
<stop offset="0.320247" stop-color="#88CCFF"/>
<stop offset="1" stop-color="#BEE0FF"/>
</linearGradient>
<linearGradient id="paint5_linear_37_2081" x1="678.492" y1="252.146" x2="626.66" y2="252.146" gradientUnits="userSpaceOnUse">
<stop stop-color="#008EFF"/>
<stop offset="0.753096" stop-color="#88CCFF"/>
<stop offset="1" stop-color="#BEE0FF"/>
</linearGradient>
<linearGradient id="paint6_linear_37_2081" x1="722.344" y1="530.052" x2="670.509" y2="530.052" gradientUnits="userSpaceOnUse">
<stop stop-color="#008EFF"/>
<stop offset="0.753096" stop-color="#88CCFF"/>
<stop offset="1" stop-color="#BEE0FF"/>
</linearGradient>
<linearGradient id="paint7_linear_37_2081" x1="758.543" y1="491.163" x2="625.972" y2="491.163" gradientUnits="userSpaceOnUse">
<stop stop-color="#008EFF"/>
<stop offset="0.320247" stop-color="#88CCFF"/>
<stop offset="1" stop-color="#BEE0FF"/>
</linearGradient>
<linearGradient id="paint8_linear_37_2081" x1="678.492" y1="530.052" x2="626.66" y2="530.052" gradientUnits="userSpaceOnUse">
<stop stop-color="#008EFF"/>
<stop offset="0.753096" stop-color="#88CCFF"/>
<stop offset="1" stop-color="#BEE0FF"/>
</linearGradient>
<linearGradient id="paint9_linear_37_2081" x1="231.461" y1="252.146" x2="179.627" y2="252.146" gradientUnits="userSpaceOnUse">
<stop stop-color="#008EFF"/>
<stop offset="0.753096" stop-color="#88CCFF"/>
<stop offset="1" stop-color="#BEE0FF"/>
</linearGradient>
<linearGradient id="paint10_linear_37_2081" x1="267.662" y1="213.258" x2="135.088" y2="213.258" gradientUnits="userSpaceOnUse">
<stop stop-color="#008EFF"/>
<stop offset="0.320247" stop-color="#88CCFF"/>
<stop offset="1" stop-color="#BEE0FF"/>
</linearGradient>
<linearGradient id="paint11_linear_37_2081" x1="187.61" y1="252.146" x2="135.776" y2="252.146" gradientUnits="userSpaceOnUse">
<stop stop-color="#008EFF"/>
<stop offset="0.753096" stop-color="#88CCFF"/>
<stop offset="1" stop-color="#BEE0FF"/>
</linearGradient>
<linearGradient id="paint12_linear_37_2081" x1="569.102" y1="272.564" x2="411.437" y2="272.564" gradientUnits="userSpaceOnUse">
<stop stop-color="#008EFF"/>
<stop offset="0.753096" stop-color="#88CCFF"/>
<stop offset="1" stop-color="#BEE0FF"/>
</linearGradient>
<linearGradient id="paint13_linear_37_2081" x1="672.439" y1="87.9213" x2="284.768" y2="87.9213" gradientUnits="userSpaceOnUse">
<stop stop-color="#008EFF"/>
<stop offset="0.320247" stop-color="#88CCFF"/>
<stop offset="1" stop-color="#BEE0FF"/>
</linearGradient>
<linearGradient id="paint14_linear_37_2081" x1="516.65" y1="548.438" x2="334.134" y2="548.438" gradientUnits="userSpaceOnUse">
<stop stop-color="#008EFF"/>
<stop offset="0.753096" stop-color="#88CCFF"/>
<stop offset="1" stop-color="#BEE0FF"/>
</linearGradient>
<linearGradient id="paint15_linear_37_2081" x1="434.97" y1="548.429" x2="343.712" y2="548.429" gradientUnits="userSpaceOnUse">
<stop stop-color="#008EFF"/>
<stop offset="0.753096" stop-color="#88CCFF"/>
<stop offset="1" stop-color="#BEE0FF"/>
</linearGradient>
<linearGradient id="paint16_linear_37_2081" x1="437.644" y1="575.335" x2="422.486" y2="575.335" gradientUnits="userSpaceOnUse">
<stop stop-color="#008EFF"/>
<stop offset="0.753096" stop-color="#88CCFF"/>
<stop offset="1" stop-color="#BEE0FF"/>
</linearGradient>
<linearGradient id="paint17_linear_37_2081" x1="575.941" y1="519.958" x2="342.499" y2="519.958" gradientUnits="userSpaceOnUse">
<stop stop-color="#008EFF"/>
<stop offset="0.320247" stop-color="#88CCFF"/>
<stop offset="1" stop-color="#BEE0FF"/>
</linearGradient>
<linearGradient id="paint18_linear_37_2081" x1="422.3" y1="536.338" x2="399.228" y2="480.447" gradientUnits="userSpaceOnUse">
<stop stop-color="#418CFF"/>
<stop offset="1" stop-color="#0646BD"/>
</linearGradient>
<linearGradient id="paint19_linear_37_2081" x1="762.127" y1="374.746" x2="579.612" y2="374.746" gradientUnits="userSpaceOnUse">
<stop stop-color="#008EFF"/>
<stop offset="0.753096" stop-color="#88CCFF"/>
<stop offset="1" stop-color="#BEE0FF"/>
</linearGradient>
<linearGradient id="paint20_linear_37_2081" x1="680.448" y1="374.738" x2="589.19" y2="374.738" gradientUnits="userSpaceOnUse">
<stop stop-color="#008EFF"/>
<stop offset="0.753096" stop-color="#88CCFF"/>
<stop offset="1" stop-color="#BEE0FF"/>
</linearGradient>
<linearGradient id="paint21_linear_37_2081" x1="683.119" y1="401.064" x2="667.963" y2="401.064" gradientUnits="userSpaceOnUse">
<stop stop-color="#008EFF"/>
<stop offset="0.753096" stop-color="#88CCFF"/>
<stop offset="1" stop-color="#BEE0FF"/>
</linearGradient>
<linearGradient id="paint22_linear_37_2081" x1="821.418" y1="346.267" x2="587.977" y2="346.267" gradientUnits="userSpaceOnUse">
<stop stop-color="#008EFF"/>
<stop offset="0.320247" stop-color="#88CCFF"/>
<stop offset="1" stop-color="#BEE0FF"/>
</linearGradient>
<linearGradient id="paint23_linear_37_2081" x1="667.705" y1="362.067" x2="644.633" y2="306.176" gradientUnits="userSpaceOnUse">
<stop stop-color="#418CFF"/>
<stop offset="1" stop-color="#0646BD"/>
</linearGradient>
<linearGradient id="paint24_linear_37_2081" x1="667.7" y1="344.755" x2="659.947" y2="310.573" gradientUnits="userSpaceOnUse">
<stop stop-color="#418CFF"/>
<stop offset="1" stop-color="#0646BD"/>
</linearGradient>
<linearGradient id="paint25_linear_37_2081" x1="271.246" y1="374.746" x2="88.7289" y2="374.746" gradientUnits="userSpaceOnUse">
<stop stop-color="#008EFF"/>
<stop offset="0.753096" stop-color="#88CCFF"/>
<stop offset="1" stop-color="#BEE0FF"/>
</linearGradient>
<linearGradient id="paint26_linear_37_2081" x1="189.567" y1="374.738" x2="98.307" y2="374.738" gradientUnits="userSpaceOnUse">
<stop stop-color="#008EFF"/>
<stop offset="0.753096" stop-color="#88CCFF"/>
<stop offset="1" stop-color="#BEE0FF"/>
</linearGradient>
<linearGradient id="paint27_linear_37_2081" x1="192.169" y1="401.064" x2="177.008" y2="401.064" gradientUnits="userSpaceOnUse">
<stop stop-color="#008EFF"/>
<stop offset="0.753096" stop-color="#88CCFF"/>
<stop offset="1" stop-color="#BEE0FF"/>
</linearGradient>
<linearGradient id="paint28_linear_37_2081" x1="330.537" y1="346.267" x2="97.0939" y2="346.267" gradientUnits="userSpaceOnUse">
<stop stop-color="#008EFF"/>
<stop offset="0.320247" stop-color="#88CCFF"/>
<stop offset="1" stop-color="#BEE0FF"/>
</linearGradient>
<linearGradient id="paint29_linear_37_2081" x1="176.823" y1="362.067" x2="153.751" y2="306.176" gradientUnits="userSpaceOnUse">
<stop stop-color="#418CFF"/>
<stop offset="1" stop-color="#0646BD"/>
</linearGradient>
</defs>
</svg>
